<svg xmlns="http://www.w3.org/2000/svg" xmlns:xlink="http://www.w3.org/1999/xlink" stroke-miterlimit="10" stroke-linecap="square" stroke="none" fill="none" viewBox="367.01649175412297 244.8 221.64917541229386 236.16" version="1.1" style="max-height: 500px" width="221.64917541229386" height="236.16"><clipPath id="p.0"><path clip-rule="nonzero" d="m0 0l960.0 0l0 720.0l-960.0 0l0 -720.0z"/></clipPath><g clip-path="url(#p.0)"><path fill-rule="evenodd" d="m0 0l960.0 0l0 720.0l-960.0 0z" fill-opacity="0.0" fill="#000000"/><path fill-rule="evenodd" d="m373.84253 360.0l0 0c0 -58.585663 47.52832 -106.078735 106.15747 -106.078735l0 0c28.154724 0 55.15631 11.176117 75.0647 31.069733c19.908386 19.893616 31.092773 46.875183 31.092773 75.009l0 0c0 58.585663 -47.52832 106.078735 -106.15747 106.078735l0 0c-58.62915 0 -106.15747 -47.493073 -106.15747 -106.078735z" fill="#58a7ee"/><path fill-rule="nonzero" d="m478.90625 393.85l26.796875 -90.0l26.09375 0l-39.609375 113.75l-17.1875 0l3.90625 -23.75zm-24.6875 -90.0l26.71875 90.0l4.0625 23.75l-17.34375 0l-39.375 -113.75l25.9375 0z" fill="#ffffff"/></g></svg>