<svg xmlns="http://www.w3.org/2000/svg" xmlns:xlink="http://www.w3.org/1999/xlink" stroke-miterlimit="10" stroke-linecap="square" stroke="none" fill="none" viewBox="14.3928035982009 247.67999999999998 886.5967016491754 224.64" version="1.1" style="max-height: 500px" width="886.5967016491754" height="224.64"><clipPath id="p.0"><path clip-rule="nonzero" d="m0 0l960.0 0l0 720.0l-960.0 0l0 -720.0z"/></clipPath><g clip-path="url(#p.0)"><path fill-rule="evenodd" d="m0 0l960.0 0l0 720.0l-960.0 0z" fill-opacity="0.0" fill="#000000"/><path fill-rule="evenodd" d="m19.254593 359.99475l0 0c0 -58.585663 47.52832 -106.078735 106.15748 -106.078735l0 0c28.154716 0 55.15629 11.176117 75.064674 31.069733c19.908386 19.893616 31.092804 46.875183 31.092804 75.009l0 0c0 58.585663 -47.52832 106.078735 -106.15748 106.078735l0 0c-58.629158 0 -106.15748 -47.493073 -106.15748 -106.078735z" fill="#58a7ee"/><path fill-rule="nonzero" d="m124.31832 393.84476l26.796883 -90.0l26.09375 0l-39.609375 113.75l-17.187508 0l3.90625 -23.75zm-24.6875 -90.0l26.71875 90.0l4.0625076 23.75l-17.343758 0l-39.375 -113.75l25.9375 0z" fill="#ffffff"/><path fill-rule="evenodd" d="m232.61942 253.92389l708.126 0l0 212.15747l-708.126 0z" fill-opacity="0.0" fill="#000000"/><path fill-rule="nonzero" d="m284.26004 388.20575l22.328125 -74.984375l21.75 0l-33.015625 94.78125l-14.3125 0l3.25 -19.796875zm-20.578125 -74.984375l22.265625 74.984375l3.390625 19.796875l-14.453125 0l-32.8125 -94.78125l21.609375 0zm92.12161 24.34375l0 70.4375l-18.8125 0l0 -70.4375l18.8125 0zm-19.984375 -18.359375q0 -4.109375 2.859375 -6.765625q2.875 -2.671875 7.6875 -2.671875q4.75 0 7.640625 2.671875q2.90625 2.65625 2.90625 6.765625q0 4.09375 -2.90625 6.765625q-2.890625 2.671875 -7.640625 2.671875q-4.8125 0 -7.6875 -2.671875q-2.859375 -2.671875 -2.859375 -6.765625zm35.48819 -11.203125l18.75 0l0 83.859375l-1.890625 16.140625l-16.859375 0l0 -100.0zm63.34375 64.0625l0 1.375q0 7.875 -1.671875 14.453125q-1.65625 6.5625 -5.109375 11.359375q-3.4375 4.78125 -8.5625 7.421875q-5.109375 2.625 -12.0 2.625q-6.453125 0 -11.171875 -2.59375q-4.71875 -2.609375 -7.90625 -7.359375q-3.1875 -4.75 -5.140625 -11.125q-1.953125 -6.390625 -2.9375 -13.9375l0 -3.0q0.984375 -7.546875 2.9375 -13.921875q1.953125 -6.390625 5.140625 -11.140625q3.1875 -4.75 7.875 -7.34375q4.6875 -2.609375 11.0625 -2.609375q6.96875 0 12.140625 2.640625q5.1875 2.625 8.59375 7.40625q3.421875 4.78125 5.078125 11.328125q1.671875 6.546875 1.671875 14.421875zm-18.75 1.375l0 -1.375q0 -4.296875 -0.625 -8.09375q-0.609375 -3.8125 -2.109375 -6.703125q-1.5 -2.90625 -4.078125 -4.59375q-2.5625 -1.703125 -6.609375 -1.703125q-3.828125 0 -6.5 1.3125q-2.671875 1.296875 -4.40625 3.640625q-1.71875 2.34375 -2.59375 5.5625q-0.875 3.21875 -1.015625 7.0625l0 8.53125q0.203125 5.140625 1.734375 9.078125q1.53125 3.9375 4.6875 6.1875q3.15625 2.25 8.234375 2.25q3.96875 0 6.5625 -1.5625q2.609375 -1.5625 4.078125 -4.421875q1.46875 -2.875 2.046875 -6.75q0.59375 -3.875 0.59375 -8.421875zm62.825195 35.859375q-8.203125 0 -14.71875 -2.625q-6.515625 -2.640625 -11.046875 -7.328125q-4.515625 -4.6875 -6.921875 -10.90625q-2.40625 -6.21875 -2.40625 -13.25l0 -2.609375q0 -8.0 2.265625 -14.640625q2.28125 -6.640625 6.546875 -11.515625q4.265625 -4.890625 10.390625 -7.515625q6.125 -2.640625 13.796875 -2.640625q7.484375 0 13.28125 2.46875q5.796875 2.46875 9.734375 7.03125q3.9375 4.546875 5.953125 10.90625q2.015625 6.34375 2.015625 14.09375l0 7.8125l-55.984375 0l0 -12.5l37.5625 0l0 -1.4375q0 -3.90625 -1.40625 -7.0q-1.390625 -3.09375 -4.1875 -4.90625q-2.796875 -1.828125 -7.15625 -1.828125q-3.71875 0 -6.390625 1.625q-2.65625 1.625 -4.328125 4.5625q-1.65625 2.921875 -2.46875 6.859375q-0.8125 3.9375 -0.8125 8.625l0 2.609375q0 4.234375 1.203125 7.8125q1.203125 3.578125 3.453125 6.1875q2.25 2.609375 5.46875 4.046875q3.21875 1.421875 7.328125 1.421875q5.078125 0 9.46875 -1.984375q4.390625 -1.984375 7.578125 -6.03125l9.109375 9.90625q-2.203125 3.1875 -6.015625 6.125q-3.8125 2.921875 -9.15625 4.78125q-5.328125 1.84375 -12.15625 1.84375zm83.12741 -96.078125l0 94.78125l-19.46875 0l0 -94.78125l19.46875 0zm29.171875 0l0 15.296875l-77.34375 0l0 -15.296875l77.34375 0zm24.21814 39.703125l0 55.078125l-18.75 0l0 -70.4375l17.640625 0l1.109375 15.359375zm21.21875 -15.8125l-0.328125 17.375q-1.359375 -0.1875 -3.28125 -0.34375q-1.921875 -0.171875 -3.484375 -0.171875q-3.96875 0 -6.875 1.015625q-2.890625 1.0 -4.8125 2.921875q-1.921875 1.921875 -2.875 4.75q-0.9375 2.828125 -1.0625 6.40625l-3.78125 -1.171875q0 -6.828125 1.359375 -12.59375q1.375 -5.765625 4.015625 -10.046875q2.640625 -4.296875 6.46875 -6.640625q3.84375 -2.34375 8.796875 -2.34375q1.5625 0 3.1875 0.234375q1.625 0.21875 2.671875 0.609375zm44.72467 55.0l0 -31.375q0 -3.390625 -1.109375 -5.828125q-1.109375 -2.4375 -3.421875 -3.796875q-2.3125 -1.375 -5.953125 -1.375q-3.125 0 -5.40625 1.078125q-2.28125 1.0625 -3.515625 3.0625q-1.234375 1.984375 -1.234375 4.640625l-18.75 0q0 -4.484375 2.078125 -8.515625q2.09375 -4.046875 6.0625 -7.125q3.96875 -3.09375 9.46875 -4.84375q5.5 -1.765625 12.34375 -1.765625q8.203125 0 14.578125 2.734375q6.375 2.71875 10.046875 8.1875q3.6875 5.46875 3.6875 13.671875l0 30.15625q0 5.78125 0.71875 9.46875q0.71875 3.671875 2.078125 6.40625l0 1.109375l-18.9375 0q-1.375 -2.859375 -2.0625 -7.1875q-0.671875 -4.328125 -0.671875 -8.703125zm2.46875 -27.015625l0.140625 10.609375l-10.484375 0q-3.71875 0 -6.453125 0.859375q-2.734375 0.84375 -4.5 2.375q-1.75 1.53125 -2.5625 3.546875q-0.8125 2.015625 -0.8125 4.421875q0 2.40625 1.109375 4.328125q1.109375 1.921875 3.1875 3.0q2.078125 1.078125 4.890625 1.078125q4.21875 0 7.34375 -1.6875q3.125 -1.703125 4.84375 -4.171875q1.734375 -2.484375 1.796875 -4.6875l4.953125 7.9375q-1.046875 2.671875 -2.84375 5.53125q-1.78125 2.859375 -4.515625 5.375q-2.734375 2.5 -6.578125 4.09375q-3.828125 1.59375 -9.109375 1.59375q-6.703125 0 -12.140625 -2.6875q-5.4375 -2.703125 -8.59375 -7.484375q-3.15625 -4.796875 -3.15625 -10.921875q0 -5.53125 2.078125 -9.828125q2.09375 -4.296875 6.15625 -7.25q4.0625 -2.96875 10.1875 -4.5q6.125 -1.53125 14.1875 -1.53125l10.875 0zm59.960754 29.5625q3.453125 0 6.125 -1.328125q2.671875 -1.34375 4.1875 -3.78125q1.53125 -2.4375 1.609375 -5.765625l17.640625 0q-0.0625 7.421875 -3.96875 13.1875q-3.90625 5.765625 -10.484375 9.046875q-6.578125 3.28125 -14.71875 3.28125q-8.203125 0 -14.296875 -2.734375q-6.078125 -2.734375 -10.125 -7.578125q-4.03125 -4.84375 -6.046875 -11.328125q-2.015625 -6.484375 -2.015625 -13.90625l0 -1.875q0 -7.5 2.015625 -13.96875q2.015625 -6.484375 6.046875 -11.328125q4.046875 -4.859375 10.09375 -7.578125q6.0625 -2.734375 14.203125 -2.734375q8.65625 0 15.1875 3.3125q6.546875 3.3125 10.296875 9.46875q3.75 6.15625 3.8125 14.546875l-17.640625 0q-0.078125 -3.515625 -1.484375 -6.375q-1.390625 -2.859375 -4.03125 -4.578125q-2.625 -1.734375 -6.46875 -1.734375q-4.109375 0 -6.71875 1.734375q-2.59375 1.71875 -4.03125 4.6875q-1.421875 2.953125 -1.984375 6.703125q-0.546875 3.734375 -0.546875 7.84375l0 1.875q0 4.109375 0.515625 7.890625q0.53125 3.765625 1.984375 6.703125q1.46875 2.921875 4.0625 4.625q2.609375 1.6875 6.78125 1.6875zm59.11969 -86.71875l0 100.0625l-18.75 0l0 -100.0625l18.75 0zm44.390625 29.625l-30.59375 34.890625l-16.40625 16.609375l-6.84375 -13.546875l13.03125 -16.53125l18.296875 -21.421875l22.515625 0zm-19.46875 70.4375l-20.828125 -32.546875l12.953125 -11.328125l29.5 43.875l-21.625 0zm46.299316 -55.078125l0 55.078125l-18.75 0l0 -70.4375l17.640625 0l1.109375 15.359375zm21.21875 -15.8125l-0.328125 17.375q-1.359375 -0.1875 -3.28125 -0.34375q-1.921875 -0.171875 -3.484375 -0.171875q-3.96875 0 -6.875 1.015625q-2.890625 1.0 -4.8125 2.921875q-1.921875 1.921875 -2.875 4.75q-0.9375 2.828125 -1.0625 6.40625l-3.78125 -1.171875q0 -6.828125 1.359375 -12.59375q1.375 -5.765625 4.015625 -10.046875q2.640625 -4.296875 6.46875 -6.640625q3.84375 -2.34375 8.796875 -2.34375q1.5625 0 3.1875 0.234375q1.625 0.21875 2.671875 0.609375z" fill="#000000"/></g></svg>